<svg width="48" height="48" viewBox="0 0 48 48" fill="none" xmlns="http://www.w3.org/2000/svg">
<g clip-path="url(#clip0_1041_4689)">
<path d="M42 6H6C4.89543 6 4 6.89543 4 8V40C4 41.1046 4.89543 42 6 42H42C43.1046 42 44 41.1046 44 40V8C44 6.89543 43.1046 6 42 6Z" fill="#009EE3"/>
<path d="M36.3359 13.918L33.5234 12.332L24.002 24.375L14.4805 12.332L11.668 13.918L21.1895 25.9609L11.668 38.0039L14.4805 39.5898L24.002 27.5469L33.5234 39.5898L36.3359 38.0039L26.8145 25.9609L36.3359 13.918Z" fill="white"/>
</g>
<defs>
<clipPath id="clip0_1041_4689">
<rect width="48" height="48" fill="white"/>
</clipPath>
</defs>
</svg>
